2.Broke.Girls.S02E05.Repack HDTV.x264


Format                           : MPEG-4
Format profile                   : Base Media
Codec ID                         : isom
File size                        : 188 MiB
Duration                         : 21mn 21s
Overall bit rate                 : 1 233 Kbps
Encoded date                     : UTC 2012-11-05 14:39:29
Tagged date                      : UTC 2012-11-05 14:39:29

Video
ID                               : 1
Format                           : AVC
Format/Info                      : Advanced Video Codec
Format profile                   : High@L3.1
Format settings, CABAC           : Yes
Format settings, ReFrames        : 5 frames
Codec ID                         : avc1
Codec ID/Info                    : Advanced Video Coding
Duration                         : 21mn 21s
Bit rate mode                    : Variable
Bit rate                         : 1 122 Kbps
Maximum bit rate                 : 3 764 Kbps
Width                            : 720 pixels
Height                           : 404 pixels
Display aspect ratio             : 16:9
Frame rate mode                  : Constant
Frame rate                       : 23.976 fps
Color space                      : YUV
Chroma subsampling               : 4:2:0
Bit depth                        : 8 bits
Scan type                        : Progressive
Bits/(Pixel*Frame)               : 0.161
Stream size                      : 171 MiB (91%)
Writing library                  : x264 core 128 r2216 198a7ea
Encoded date                     : UTC 2012-10-29 18:10:14
Tagged date                      : UTC 2012-11-05 14:39:34
Matrix coefficients              : BT.709-5, BT.1361, IEC 61966-2-4 709, SMPTE RP177

Audio
ID                               : 2
Format                           : AAC
Format/Info                      : Advanced Audio Codec
Format profile                   : LC
Codec ID                         : 40
Duration                         : 21mn 21s
Bit rate mode                    : Variable
Bit rate                         : 107 Kbps
Maximum bit rate                 : 151 Kbps
Channel(s)                       : 2 channels
Channel positions                : Front: L R
Sampling rate                    : 48.0 KHz
Compression mode                 : Lossy
Stream size                      : 16.3 MiB (9%)
Encoded date                     : UTC 2012-11-05 14:39:33
Tagged date                      : UTC 2012-11-05 14:39:34

